<svg xmlns="http://www.w3.org/2000/svg" viewBox="0 0 141.73 141.73"><defs><style>.cls-1{fill:#fff;}.cls-2{fill:#e17000;}</style></defs><g id="Laag_2" data-name="Laag 2"><g id="Laag_1-2" data-name="Laag 1"><rect width="141.73" height="141.73" rx="20"/><path class="cls-1" d="M15.75,108.25V74.75h9.6C36.69,74.75,43,80.42,43,90.53c0,12.1-6.84,17.72-17.81,17.72Zm6.13-5.06H25.4c6.74,0,11.13-3.62,11.13-12.35,0-7.25-4.39-11-11.59-11H21.88Z"/><path class="cls-1" d="M51.24,72.51a3.14,3.14,0,0,1,3.42,3.32,3.18,3.18,0,0,1-3.42,3.26,3.05,3.05,0,0,1-3.37-3.26A3.17,3.17,0,0,1,51.24,72.51Zm2.91,35.74H48.38V83.13l5.77-.26Z"/><path class="cls-1" d="M68.13,103.34h6c5.41,0,7.71,2.15,7.71,6.23,0,4.8-4,8.68-13.17,8.68-7.2,0-10.52-2.55-10.52-6.48A5.8,5.8,0,0,1,62,106.31v-.16a3.77,3.77,0,0,1-2-3.37A4.08,4.08,0,0,1,62.83,99v-.15c-2.3-1.27-3.63-3.42-3.63-6.69,0-6.12,4.14-9.44,10.52-9.44a13.87,13.87,0,0,1,3.88.51h8.17v3.83H77.89v.15a6,6,0,0,1,2,4.75c0,5.56-3.78,8.47-10.72,8.47A12.73,12.73,0,0,1,66,100a1.88,1.88,0,0,0-1.07,1.58C64.92,102.73,65.79,103.34,68.13,103.34ZM69.21,114c5.51,0,7.5-1.37,7.5-3.37,0-1.48-.92-2.29-3.42-2.34L64.92,108a2.93,2.93,0,0,0-1.38,2.66C63.54,112.64,65.28,114,69.21,114ZM74.52,91.5c0-3.06-1.69-4.7-4.9-4.7-2.86,0-4.91,1.64-4.91,5.06,0,3.26,1.84,4.64,4.8,4.64C72.68,96.5,74.52,95,74.52,91.5Z"/><path class="cls-2" d="M88.56,72.51A3.14,3.14,0,0,1,92,75.83a3.18,3.18,0,0,1-3.42,3.26,3.05,3.05,0,0,1-3.37-3.26A3.17,3.17,0,0,1,88.56,72.51Zm2.91,35.74H85.7V83.13l5.77-.26Z"/><path class="cls-2" d="M98.77,108.25V74.75h9.59c11.34,0,17.62,5.67,17.62,15.78,0,12.1-6.84,17.72-17.82,17.72Zm6.12-5.06h3.53c6.74,0,11.13-3.62,11.13-12.35,0-7.25-4.39-11-11.59-11h-3.07Z"/></g></g></svg>