<svg width="32" height="32" viewBox="0 0 32 32" fill="none" xmlns="http://www.w3.org/2000/svg">
<path d="M32 16C32 24.8365 24.8366 32 16 32C7.16344 32 0 24.8365 0 16C0 7.16344 7.16344 0 16 0C24.8366 0 32 7.16344 32 16Z" fill="#FFB712"/>
<path d="M32 16C32 24.8366 24.8366 32 16 32C7.16344 32 0 24.8366 0 16C0 7.16344 7.16344 0 16 0C24.8366 0 32 7.16344 32 16Z" fill="#ED395A"/>
<path fill-rule="evenodd" clip-rule="evenodd" d="M14.2264 25.2612C14.5807 26.0093 15.3681 26.5605 16.2737 26.5605C17.5336 26.5605 18.5572 25.5368 18.5572 24.2769C18.5572 24.2769 18.5572 24.2769 18.5572 24.2375C18.3604 24.3163 18.2816 24.3557 18.2816 24.3557C18.2816 24.3557 16.3524 24.9069 14.2264 25.2612Z" fill="white"/>
<path fill-rule="evenodd" clip-rule="evenodd" d="M11.4309 7.11107C11.3916 6.99296 11.3916 6.87484 11.3916 6.75673C11.3916 5.9693 12.0215 5.33936 12.8089 5.33936C13.4389 5.33936 13.9507 5.73307 14.1476 6.28427C17.6123 5.92993 20.9588 8.09535 21.9825 11.56L22.3368 12.7806C22.6912 14.0011 23.3211 15.1428 24.1479 16.1271L25.4866 17.7414C25.5653 17.8201 25.644 17.8988 25.7228 17.9776C25.7621 18.017 25.7622 18.017 25.8015 18.0563C25.8803 18.1351 25.9196 18.2138 25.959 18.2926C26.6677 20.5761 17.9272 23.5683 17.9272 23.5683C17.9272 23.5683 9.34426 26.0881 8.63557 23.8439C8.5962 23.7652 8.5962 23.6471 8.63557 23.5683C8.67494 23.4108 8.71432 23.2927 8.71432 23.1352L8.8718 21.0486C8.98992 19.7887 8.79305 18.4894 8.39934 17.3083L7.96626 16.1271C6.66701 12.5837 8.24186 8.80404 11.4309 7.11107Z" fill="white"/>
</svg>
